<?xml version="1.0" encoding="UTF-8" standalone="no"?>
<!DOCTYPE svg PUBLIC "-//W3C//DTD SVG 1.1//EN" "http://www.w3.org/Graphics/SVG/1.1/DTD/svg11.dtd">
<!-- Generated by Microsoft Visio, SVG Export test.svg Page-1 -->
<svg xmlns="http://www.w3.org/2000/svg" xmlns:xlink="http://www.w3.org/1999/xlink" xmlns:ev="http://www.w3.org/2001/xml-events"
                              xmlns:v="http://schemas.microsoft.com/visio/2003/SVGExtensions/" width="24" height="40"
                              viewBox="0 0 156.289 196.235" xml:space="preserve" color-interpolation-filters="sRGB" class="st7">
               <v:documentProperties v:langID="1036" v:metric="true" v:viewMarkup="false"/>
               <style type="text/css">
               <![CDATA[
                              .st1 {fill:#ff9900;stroke:none;stroke-linecap:butt;stroke-width:7.2124}
                              .st2 {fill:#000000}
                              .st3 {stroke:none;stroke-linecap:butt;stroke-width:7.2124}
                              .st4 {fill:#232f3e;stroke:#232f3e;stroke-linecap:butt;stroke-width:0.75}
                              .st5 {fill:#000000;stroke:#000000;stroke-linecap:butt;stroke-width:0.75}
                              .st6 {fill:#000000;stroke:none;stroke-linecap:butt;stroke-width:0.75}
                              .st7 {fill:none;fill-rule:evenodd;font-size:12px;overflow:visible;stroke-linecap:square;stroke-miterlimit:3}
               ]]>
               </style>
 
               <g v:mID="0" v:index="1" v:groupContext="foregroundPage">
                              <title>Page-1</title>
                              <v:pageProperties v:drawingScale="0.0393701" v:pageScale="0.0393701" v:drawingUnits="24" v:shadowOffsetX="8.50394"
                                                           v:shadowOffsetY="-8.50394"/>
                              <g id="group79-1" transform="translate(0.75,-0.75)" v:mID="79" v:groupContext="group">
                                            <title>Sheet.79</title>
                                            <g id="group71-2" transform="translate(98.9114,-12.6605)" v:mID="71" v:groupContext="group">
                                                           <title>Sheet.71</title>
                                                           <g id="group72-3" v:mID="72" v:groupContext="group">
                                                                          <title>Sheet.72</title>
                                                                          <g id="shape73-4" v:mID="73" v:groupContext="shape">
                                                                                         <title>Sheet.73</title>
                                                                                         <path d="M37.15 187.75 C19.33 196.24 8.26 189.14 1.18 184.83 C0.74 184.56 0 184.89 0.65 185.63 C3.01 188.49
                                                                                                                                     10.74 195.39 20.83 195.39 C30.93 195.39 36.93 189.88 37.69 188.92 C38.43 187.96 37.9 187.44
                                                                                                                                     37.15 187.75 L37.15 187.75 ZM42.16 184.99 C41.68 184.36 39.25 184.25 37.72 184.44 C36.18 184.62
                                                                                                                                     33.88 185.56 34.08 186.12 C34.18 186.33 34.39 186.23 35.45 186.14 C36.5 186.03 39.46 185.66
                                                                                                                                     40.08 186.47 C40.7 187.28 39.13 191.14 38.85 191.77 C38.57 192.39 38.95 192.55 39.47 192.13
                                                                                                                                     C39.98 191.72 40.91 190.65 41.53 189.12 C42.14 187.6 42.52 185.46 42.16 184.99 L42.16 184.99
                                                                                                                                     Z" class="st1"/>
                                                                          </g>
                                                                          <g id="shape74-6" v:mID="74" v:groupContext="shape" transform="translate(8.33107,-11.3846)">
                                                                                         <title>Sheet.74</title>
                                                                                         <path d="M16.83 181.83 C16.83 184.05 16.89 185.91 15.77 187.89 C14.86 189.49 13.42 190.48 11.81 190.48 C9.62
                                                                                                                                     190.48 8.34 188.81 8.34 186.34 C8.34 181.47 12.7 180.59 16.83 180.59 L16.83 181.83 ZM22.6 195.75
                                                                                                                                     C22.22 196.09 21.67 196.11 21.25 195.89 C19.35 194.31 19.01 193.58 17.97 192.08 C14.83 195.28
                                                                                                                                     12.62 196.24 8.55 196.24 C3.74 196.24 0 193.27 0 187.33 C0 182.7 2.52 179.54 6.09 177.99 C9.19
                                                                                                                                     176.63 13.52 176.39 16.83 176.01 L16.83 175.27 C16.83 173.91 16.94 172.31 16.14 171.13 C15.44
                                                                                                                                     170.08 14.11 169.65 12.94 169.65 C10.76 169.65 8.81 170.76 8.34 173.08 C8.24 173.59 7.87 174.1
                                                                                                                                     7.35 174.12 L1.81 173.53 C1.34 173.42 0.83 173.04 0.96 172.33 C2.23 165.61 8.3 163.59 13.73
                                                                                                                                     163.59 C16.51 163.59 20.14 164.33 22.34 166.43 C25.12 169.03 24.85 172.49 24.85 176.26 L24.85
                                                                                                                                     185.16 C24.85 187.84 25.96 189.01 27.01 190.46 C27.38 190.97 27.46 191.59 26.99 191.98 C25.83
                                                                                                                                     192.95 23.75 194.76 22.61 195.77 L22.6 195.75 L22.6 195.75 Z" class="st2"/>
                                                                                         <path d="M16.83 181.83 C16.83 184.05 16.89 185.91 15.77 187.89 C14.86 189.49 13.42 190.48 11.81 190.48 C9.62
                                                                                                                                     190.48 8.34 188.81 8.34 186.34 C8.34 181.47 12.7 180.59 16.83 180.59 L16.83 181.83M22.6 195.75
                                                                                                                                     C22.22 196.09 21.67 196.11 21.25 195.89 C19.35 194.31 19.01 193.58 17.97 192.08 C14.83 195.28
                                                                                                                                     12.62 196.24 8.55 196.24 C3.74 196.24 0 193.27 0 187.33 C0 182.7 2.52 179.54 6.09 177.99 C9.19
                                                                                                                                     176.63 13.52 176.39 16.83 176.01 L16.83 175.27 C16.83 173.91 16.94 172.31 16.14 171.13 C15.44
                                                                                                                                     170.08 14.11 169.65 12.94 169.65 C10.76 169.65 8.81 170.76 8.34 173.08 C8.24 173.59 7.87 174.1
                                                                                                                                     7.35 174.12 L1.81 173.53 C1.34 173.42 0.83 173.04 0.96 172.33 C2.23 165.61 8.3 163.59 13.73
                                                                                                                                     163.59 C16.51 163.59 20.14 164.33 22.34 166.43 C25.12 169.03 24.85 172.49 24.85 176.26 L24.85
                                                                                                                                     185.16 C24.85 187.84 25.96 189.01 27.01 190.46 C27.38 190.97 27.46 191.59 26.99 191.98 C25.83
                                                                                                                                     192.95 23.75 194.76 22.61 195.77 L22.6 195.75" class="st3"/>
                                                                          </g>
                                                                          <g id="shape75-9" v:mID="75" v:groupContext="shape">
                                                                                         <title>Sheet.75</title>
                                                                                         <path d="M37.15 187.75 C19.33 196.24 8.26 189.14 1.18 184.83 C0.74 184.56 0 184.89 0.65 185.63 C3.01 188.49
                                                                                                                                     10.74 195.39 20.83 195.39 C30.93 195.39 36.93 189.88 37.69 188.92 C38.43 187.96 37.9 187.44
                                                                                                                                     37.15 187.75 L37.15 187.75 ZM42.16 184.99 C41.68 184.36 39.25 184.25 37.72 184.44 C36.18 184.62
                                                                                                                                     33.88 185.56 34.08 186.12 C34.18 186.33 34.39 186.23 35.45 186.14 C36.5 186.03 39.46 185.66
                                                                                                                                     40.08 186.47 C40.7 187.28 39.13 191.14 38.85 191.77 C38.57 192.39 38.95 192.55 39.47 192.13
                                                                                                                                     C39.98 191.72 40.91 190.65 41.53 189.12 C42.14 187.6 42.52 185.46 42.16 184.99 L42.16 184.99
                                                                                                                                     Z" class="st1"/>
                                                                          </g>
                                                                          <g id="shape76-11" v:mID="76" v:groupContext="shape" transform="translate(8.33107,-11.3846)">
                                                                                         <title>Sheet.76</title>
                                                                                         <path d="M16.83 181.83 C16.83 184.05 16.89 185.91 15.77 187.89 C14.86 189.49 13.42 190.48 11.81 190.48 C9.62
                                                                                                                                     190.48 8.34 188.81 8.34 186.34 C8.34 181.47 12.7 180.59 16.83 180.59 L16.83 181.83 ZM22.6 195.75
                                                                                                                                     C22.22 196.09 21.67 196.11 21.25 195.89 C19.35 194.31 19.01 193.58 17.97 192.08 C14.83 195.28
                                                                                                                                     12.62 196.24 8.55 196.24 C3.74 196.24 0 193.27 0 187.33 C0 182.7 2.52 179.54 6.09 177.99 C9.19
                                                                                                                                     176.63 13.52 176.39 16.83 176.01 L16.83 175.27 C16.83 173.91 16.94 172.31 16.14 171.13 C15.44
                                                                                                                                     170.08 14.11 169.65 12.94 169.65 C10.76 169.65 8.81 170.76 8.34 173.08 C8.24 173.59 7.87 174.1
                                                                                                                                     7.35 174.12 L1.81 173.53 C1.34 173.42 0.83 173.04 0.96 172.33 C2.23 165.61 8.3 163.59 13.73
                                                                                                                                     163.59 C16.51 163.59 20.14 164.33 22.34 166.43 C25.12 169.03 24.85 172.49 24.85 176.26 L24.85
                                                                                                                                     185.16 C24.85 187.84 25.96 189.01 27.01 190.46 C27.38 190.97 27.46 191.59 26.99 191.98 C25.83
                                                                                                                                     192.95 23.75 194.76 22.61 195.77 L22.6 195.75 L22.6 195.75 Z" class="st2"/>
                                                                                         <path d="M16.83 181.83 C16.83 184.05 16.89 185.91 15.77 187.89 C14.86 189.49 13.42 190.48 11.81 190.48 C9.62
                                                                                                                                     190.48 8.34 188.81 8.34 186.34 C8.34 181.47 12.7 180.59 16.83 180.59 L16.83 181.83M22.6 195.75
                                                                                                                                     C22.22 196.09 21.67 196.11 21.25 195.89 C19.35 194.31 19.01 193.58 17.97 192.08 C14.83 195.28
                                                                                                                                     12.62 196.24 8.55 196.24 C3.74 196.24 0 193.27 0 187.33 C0 182.7 2.52 179.54 6.09 177.99 C9.19
                                                                                                                                     176.63 13.52 176.39 16.83 176.01 L16.83 175.27 C16.83 173.91 16.94 172.31 16.14 171.13 C15.44
                                                                                                                                     170.08 14.11 169.65 12.94 169.65 C10.76 169.65 8.81 170.76 8.34 173.08 C8.24 173.59 7.87 174.1
                                                                                                                                     7.35 174.12 L1.81 173.53 C1.34 173.42 0.83 173.04 0.96 172.33 C2.23 165.61 8.3 163.59 13.73
                                                                                                                                     163.59 C16.51 163.59 20.14 164.33 22.34 166.43 C25.12 169.03 24.85 172.49 24.85 176.26 L24.85
                                                                                                                                     185.16 C24.85 187.84 25.96 189.01 27.01 190.46 C27.38 190.97 27.46 191.59 26.99 191.98 C25.83
                                                                                                                                     192.95 23.75 194.76 22.61 195.77 L22.6 195.75" class="st3"/>
                                                                          </g>
                                                           </g>
                                            </g>
                                            <g id="group78-14" v:mID="78" v:groupContext="group">
                                                           <title>Sheet.78</title>
                                                           <g id="group2-15" v:mID="2" v:groupContext="group">
                                                                          <title>Sheet.2</title>
                                                                          <g id="shape3-16" v:mID="3" v:groupContext="shape" transform="translate(14.9796,-34.9524)">
                                                                                         <title>Sheet.3</title>
                                                                                         <path d="M4.99 186.25 C2.24 186.25 0 188.49 0 191.24 C0 194 2.24 196.24 4.99 196.24 C3.16 196.24 1.66 194.74
                                                                                                                                     1.66 192.91 C1.66 191.07 3.16 189.58 4.99 189.58 C6.83 189.58 8.32 191.07 8.32 192.91 C8.32
                                                                                                                                     194.74 6.83 196.24 4.99 196.24 C7.75 196.24 9.99 194 9.99 191.24 C9.99 188.49 7.75 186.25 4.99
                                                                                                                                     186.25 Z" class="st4"/>
                                                                          </g>
                                                                          <g id="shape4-18" v:mID="4" v:groupContext="shape">
                                                                                         <title>Sheet.4</title>
                                                                                         <path d="M134.8 129.73 C134.8 129.73 134.81 129.74 134.82 129.74 L134.82 14.82 C134.82 7.49 128.82 1.5 121.5
                                                                                                                                     1.5 L13.32 1.5 C5.99 1.5 0 7.49 0 14.82 L0 162.95 C0 170.27 5.99 176.26 13.32 176.26 L88.29
                                                                                                                                     176.26 C88.29 176.26 88.29 176.25 88.28 176.24 C93.9 188.05 105.9 196.24 119.84 196.24 C139.14
                                                                                                                                     196.24 154.79 180.59 154.79 161.28 C154.79 147.34 146.61 135.34 134.8 129.73 ZM13.32 171.27
                                                                                                                                     C8.73 171.27 4.99 167.54 4.99 162.95 L4.99 133.81 C7.38 138.27 12.08 141.31 17.48 141.31 L91.18
                                                                                                                                     141.31 C91.57 140.74 91.99 140.19 92.42 139.65 L17.48 139.65 C10.59 139.65 4.99 134.05 4.99
                                                                                                                                     127.16 L4.99 14.82 C4.99 10.23 8.73 6.49 13.32 6.49 L121.5 6.49 C126.09 6.49 129.82 10.23 129.82
                                                                                                                                     14.82 L129.82 127.16 C129.82 127.37 129.8 127.58 129.79 127.79 C126.63 126.85 123.3 126.33 119.84
                                                                                                                                     126.33 C100.53 126.33 84.88 141.98 84.88 161.28 C84.88 164.75 85.41 168.1 86.35 171.27 L13.32
                                                                                                                                     171.27 ZM119.84 191.24 C103.32 191.24 89.88 177.8 89.88 161.28 C89.88 144.76 103.32 131.32 119.84
                                                                                                                                     131.32 C136.36 131.32 149.8 144.76 149.8 161.28 C149.8 177.8 136.36 191.24 119.84 191.24 Z"
                                                                                                                      class="st5"/>
                                                                          </g>
                                                           </g>
                                                           <g id="group52-20" transform="translate(14.2916,-89.8777)" v:mID="52" v:groupContext="group">
                                                                          <title>Sheet.52</title>
                                                                          <g id="group53-21" v:mID="53" v:groupContext="group">
                                                                                         <title>Sheet.53</title>
                                                                                         <g id="shape54-22" v:mID="54" v:groupContext="shape" transform="translate(1.04916E-13,-59.9185)">
                                                                                                       <title>Sheet.54</title>
                                                                                                       <path d="M11.73 191.24 L0 191.24 L0 196.24 L10.42 196.24 C10.72 194.52 11.16 192.85 11.73 191.24 Z"
                                                                                                                                     class="st6"/>
                                                                                         </g>
                                                                                         <g id="shape55-24" v:mID="55" v:groupContext="shape">
                                                                                                       <title>Sheet.55</title>
                                                                                                       <rect x="0" y="191.242" width="19.9728" height="4.99321" class="st6"/>
                                                                                         </g>
                                                                                         <g id="shape56-26" v:mID="56" v:groupContext="shape" transform="translate(29.9592,2.84217E-14)">
                                                                                                       <title>Sheet.56</title>
                                                                                                       <rect x="0" y="191.242" width="39.9456" height="4.99321" class="st6"/>
                                                                                         </g>
                                                                                         <g id="shape57-28" v:mID="57" v:groupContext="shape" transform="translate(-5.15588E-13,-14.9796)">
                                                                                                       <title>Sheet.57</title>
                                                                                                       <rect x="0" y="191.242" width="44.9388" height="4.99321" class="st6"/>
                                                                                         </g>
                                                                                         <g id="shape58-30" v:mID="58" v:groupContext="shape" transform="translate(54.9253,-14.9796)">
                                                                                                       <title>Sheet.58</title>
                                                                                                       <path d="M0 196.24 L10.85 196.24 L5.85 191.24 L0 191.24 L0 196.24 Z" class="st6"/>
                                                                                         </g>
                                                                                         <g id="shape59-32" v:mID="59" v:groupContext="shape" transform="translate(89.0189,-14.9796)">
                                                                                                       <title>Sheet.59</title>
                                                                                                       <path d="M2.93 194.17 C3.55 194.8 4.04 195.5 4.47 196.24 L15.84 196.24 L15.84 191.24 L0 191.24 L2.93
                                                                                                                                                    194.17 Z" class="st6"/>
                                                                                         </g>
                                                                                         <g id="shape60-34" v:mID="60" v:groupContext="shape" transform="translate(0,-29.9592)">
                                                                                                       <title>Sheet.60</title>
                                                                                                       <path d="M17.68 191.24 L0 191.24 L0 196.24 L23.42 196.24 C21.3 194.82 19.38 193.13 17.68 191.24 Z"
                                                                                                                                     class="st6"/>
                                                                                         </g>
                                                                                         <g id="shape61-36" v:mID="61" v:groupContext="shape" transform="translate(74.0393,-29.9592)">
                                                                                                       <title>Sheet.61</title>
                                                                                                       <path d="M4.99 196.24 L30.82 196.24 L30.82 191.24 L0 191.24 L4.99 196.24 Z" class="st6"/>
                                                                                         </g>
                                                                                         <g id="shape62-38" v:mID="62" v:groupContext="shape" transform="translate(68.1656,-44.9388)">
                                                                                                       <title>Sheet.62</title>
                                                                                                       <path d="M11.73 191.24 L1.3 191.24 C1.01 192.96 0.57 194.63 0 196.24 L11.73 196.24 L11.73 191.24 Z"
                                                                                                                                     class="st6"/>
                                                                                         </g>
                                                                                         <g id="shape63-40" v:mID="63" v:groupContext="shape" transform="translate(0,-44.9388)">
                                                                                                       <title>Sheet.63</title>
                                                                                                       <rect x="0" y="191.242" width="4.99321" height="4.99321" class="st6"/>
                                                                                         </g>
                                                                                         <g id="shape64-42" v:mID="64" v:groupContext="shape" transform="translate(89.8777,-44.9388)">
                                                                                                       <title>Sheet.64</title>
                                                                                                       <rect x="0" y="191.242" width="14.9796" height="4.99321" class="st6"/>
                                                                                         </g>
                                                                                         <g id="shape65-44" v:mID="65" v:groupContext="shape" transform="translate(99.8641,2.84217E-14)">
                                                                                                       <title>Sheet.65</title>
                                                                                                       <rect x="0" y="191.242" width="4.99321" height="4.99321" class="st6"/>
                                                                                         </g>
                                                                                         <g id="shape66-46" v:mID="66" v:groupContext="shape" transform="translate(74.8981,-59.9185)">
                                                                                                       <title>Sheet.66</title>
                                                                                                       <rect x="0" y="191.242" width="29.9592" height="4.99321" class="st6"/>
                                                                                         </g>
                                                                          </g>
                                                                          <g id="shape67-48" v:mID="67" v:groupContext="shape" transform="translate(14.9796,-4.99321)">
                                                                                         <title>Sheet.67</title>
                                                                                         <path d="M73.44 187.71 L53.46 167.74 C52.16 166.44 50.32 166.02 48.66 166.46 L44.29 162.1 C47.82 157.8 49.93
                                                                                                                                     152.3 49.93 146.3 C49.93 132.52 38.75 121.34 24.97 121.34 C11.18 121.34 0 132.52 0 146.3 C0
                                                                                                                                     160.09 11.18 171.27 24.97 171.27 C30.96 171.27 36.46 169.15 40.76 165.63 L45.13 169.99 C44.68
                                                                                                                                     171.66 45.1 173.49 46.4 174.8 L66.37 194.77 C67.35 195.75 68.63 196.24 69.9 196.24 C71.18 196.24
                                                                                                                                     72.46 195.75 73.44 194.77 C75.39 192.82 75.39 189.66 73.44 187.71 ZM4.99 146.3 C4.99 135.29
                                                                                                                                     13.95 126.33 24.97 126.33 C35.98 126.33 44.94 135.29 44.94 146.3 C44.94 157.32 35.98 166.28
                                                                                                                                     24.97 166.28 C13.95 166.28 4.99 157.32 4.99 146.3 Z" class="st6"/>
                                                                          </g>
                                                                          <g id="group68-50" transform="translate(22.3463,-39.9456)" v:mID="68" v:groupContext="group">
                                                                                         <title>Sheet.68</title>
                                                                                         <g id="shape69-51" v:mID="69" v:groupContext="shape" transform="translate(7.61297,-1.42109E-13)">
                                                                                                       <title>Sheet.69</title>
                                                                                                       <path d="M0 186.25 L0 196.24 L20.48 196.24 C23.88 193.85 26.42 190.34 27.59 186.25 L0 186.25 Z"
                                                                                                                                     class="st6"/>
                                                                                         </g>
                                                                                         <g id="shape70-53" v:mID="70" v:groupContext="shape" transform="translate(1.73861E-13,-19.9728)">
                                                                                                       <title>Sheet.70</title>
                                                                                                       <path d="M22.59 196.24 L22.59 186.25 L7.11 186.25 C3.71 188.64 1.16 192.14 0 196.24 L22.59 196.24 Z"
                                                                                                                                     class="st6"/>
                                                                                         </g>
                                                                          </g>
                                                           </g>
                                            </g>
                              </g>
               </g>
</svg>