<svg id="Capa_1" enable-background="new 0 0 512.5 512.5" height="24" viewBox="0 0 512.5 512.5" width="24" xmlns="http://www.w3.org/2000/svg"><g><g><path d="m458.166 430.719-128.709-264.853c-2.006-4.121-3.041-8.646-3.026-13.23l.319-107.034h-140l-.367 106.645c-.017 4.512-1.052 8.962-3.027 13.019l-129.022 265.453c-17.619 33.3 6.521 73.384 44.195 73.384h315.442c37.674 0 61.814-40.085 44.195-73.384z" fill="#efedef"/><path d="m113.45 484.103c-7.101 0-13.829-.847-20.075-2.395-13.856-3.436-23.634-16.106-22.842-30.359.383-6.894 2.237-13.898 5.797-20.625l129.03-265.46c1.97-4.05 3.01-8.5 3.02-13.02l.207-59.668c.015-4.407 3.593-7.972 8-7.972h110.043l.12-39h-118-22l-.14 39h.005l-.235 67.64c-.01 4.52-1.05 8.97-3.02 13.02l-129.03 265.459c-18.191 31.724 7.784 74.618 44.2 73.38h22 293.44c16.91 0 31.1-8.08 40.01-20z" fill="#e3e0e4"/><path d="m334.75 64.603h-156c-11.046 0-20-8.954-20-20v-18c0-11.046 8.954-20 20-20h156c11.046 0 20 8.954 20 20v18c0 11.046-8.954 20-20 20z" fill="#efedef"/><path d="m201.75 64.603h-23c-11.05 0-20-8.95-20-20v-18c0-11.05 8.95-20 20-20h23c-11.05 0-20 8.95-20 20v18c0 11.05 8.95 20 20 20z" fill="#e3e0e4"/><path d="m326.127 256.459c5.388.349 10.17 3.557 12.529 8.413l88.293 181.685.28.531c3.449 6.519 1.225 12.041-.409 14.753-1.633 2.712-5.475 7.262-12.85 7.262h-315.442c-7.375 0-11.216-4.55-12.849-7.262-1.634-2.712-3.858-8.234-.409-14.753l.28-.53 79.001-162.581c2.64-5.433 8.276-8.73 14.308-8.42 3.748.192 7.762.296 12.087.296 60.099 0 60.099-20 120.199-20 4.482 0 10.253.3 14.982.606z" fill="#ccf49f"/><g fill="#b3e59f"><path d="m426.82 461.843c-1.63 2.71-5.47 7.26-12.85 7.26h-315.44c-7.38 0-11.22-4.55-12.85-7.26s-3.86-8.24-.41-14.75l.28-.53 79-162.59c2.64-5.43 8.28-8.73 14.31-8.42 3.12.17 6.41.26 9.92.29l-73.23 150.72-.28.53c-3.45 6.51-1.22 12.04.41 14.75s5.47 7.26 12.85 7.26h299.6c2.09 5.63.15 10.31-1.31 12.74z"/><circle cx="207.75" cy="399.853" r="23"/><circle cx="316.25" cy="367.353" r="19.5"/></g><circle cx="234.25" cy="207.353" fill="#ccf49f" r="21.5"/><path d="m255.44 210.943c-1.7 10.16-10.54 17.91-21.19 17.91-11.87 0-21.5-9.63-21.5-21.5 0-9.72 6.46-17.94 15.31-20.59-.21 1.17-.31 2.37-.31 3.59 0 11.87 9.63 21.5 21.5 21.5 2.15 0 4.23-.32 6.19-.91z" fill="#b3e59f"/><circle cx="269.25" cy="119.353" fill="#ccf49f" r="17.5"/><path d="m286.07 124.173c-2.09 7.32-8.83 12.68-16.82 12.68-9.66 0-17.5-7.84-17.5-17.5 0-7.99 5.36-14.73 12.68-16.82-.44 1.53-.68 3.15-.68 4.82 0 9.66 7.84 17.5 17.5 17.5 1.67 0 3.29-.24 4.82-.68z" fill="#b3e59f"/><circle cx="247.25" cy="323.353" fill="#b3e59f" r="16.5"/><path d="m229.15 408.253c-3.34 8.55-11.67 14.6-21.4 14.6-12.7 0-23-10.3-23-23 0-9.73 6.05-18.06 14.6-21.4-1.04 2.6-1.6 5.43-1.6 8.4 0 12.7 10.3 23 23 23 2.97 0 5.8-.56 8.4-1.6z" fill="#95d6a4"/><path d="m334.91 373.013c-2.42 8.01-9.86 13.84-18.66 13.84-10.77 0-19.5-8.73-19.5-19.5 0-8.8 5.83-16.24 13.84-18.66-.55 1.79-.84 3.69-.84 5.66 0 10.77 8.73 19.5 19.5 19.5 1.97 0 3.87-.29 5.66-.84z" fill="#95d6a4"/><path d="m263.44 326.543c-1.48 7.58-8.17 13.31-16.19 13.31-9.11 0-16.5-7.39-16.5-16.5 0-8.02 5.73-14.71 13.31-16.19-.2 1.03-.31 2.1-.31 3.19 0 9.11 7.39 16.5 16.5 16.5 1.09 0 2.16-.11 3.19-.31z" fill="#95d6a4"/></g><g><path d="m464.857 428.227-128.657-264.747c-1.495-3.073-2.28-6.504-2.27-9.924l.241-80.556c15.361.321 28.098-12.127 28.079-27.5v-18c0-15.164-12.337-27.5-27.5-27.5h-156c-15.163 0-27.5 12.336-27.5 27.5v18c-.013 15.31 12.606 27.73 27.909 27.5l-.276 80.116c-.013 3.365-.798 6.741-2.272 9.769l-12.998 26.742c-1.811 3.726-.259 8.213 3.467 10.024 3.643 1.795 8.207.296 10.023-3.467l12.996-26.737c2.454-5.039 3.763-10.666 3.784-16.276l.276-80.171h25.091c4.143 0 7.5-3.358 7.5-7.5s-3.357-7.5-7.5-7.5h-40.5c-6.893 0-12.5-5.607-12.5-12.5v-18c0-6.893 5.607-12.5 12.5-12.5h156c6.893 0 12.5 5.607 12.5 12.5v18c0 6.893-5.607 12.5-12.5 12.5h-79c-4.143 0-7.5 3.358-7.5 7.5s3.357 7.5 7.5 7.5h63.421l-.24 80.51c-.019 5.697 1.29 11.415 3.78 16.532l128.709 264.853c7.142 13.329 6.769 29.075-1.041 42.031-7.759 12.883-21.369 20.574-36.408 20.574h-315.443c-15.038 0-28.648-7.691-36.407-20.574-7.81-12.956-8.182-28.701-1.042-42.031l100.65-207.08c1.811-3.726.259-8.213-3.467-10.024s-8.214-.258-10.023 3.467l-100.596 206.968c-9.45 17.958-8.845 39.048 1.629 56.438 10.497 17.43 28.911 27.836 49.257 27.836h315.442c20.347 0 38.761-10.406 49.258-27.836 10.473-17.392 11.079-38.48 1.628-56.437z"/><path d="m179.245 268.964c-9.095-.476-17.485 4.493-21.439 12.632l-78.946 162.467c-3.984 7.202-3.868 15.497.395 22.544 4.168 6.923 11.192 10.894 19.273 10.894h315.442c8.081 0 15.106-3.971 19.273-10.892 4.265-7.051 4.38-15.35.396-22.544l-88.238-181.573c-3.529-7.262-10.729-12.098-18.79-12.619-4.691-.304-8.791-.5-12.185-.58-4.18-.109-7.577 3.18-7.676 7.32-.098 4.141 3.18 7.577 7.32 7.676 3.189.075 7.081.262 11.57.553 2.689.174 5.092 1.786 6.268 4.207l88.293 181.685c.827 1.804 2.532 3.797.192 8.138-2.187 3.63-5.376 3.63-6.425 3.63h-315.44c-5.541.681-9.796-7.469-6.231-11.767l79.001-162.582c1.316-2.712 4.155-4.368 7.178-4.207 3.952.203 8.147.306 12.472.306 31.266 0 47.128-5.279 62.468-10.384 8.461-2.815 16.452-5.475 27.104-7.303 4.082-.7 6.824-4.577 6.123-8.66-.699-4.082-4.571-6.827-8.66-6.124-11.771 2.02-20.684 4.985-29.303 7.854-14.86 4.945-28.896 9.616-57.731 9.616-4.07-.001-8.008-.098-11.704-.287z"/><path d="m214.26 414.823c-3.758 1.742-5.392 6.201-3.648 9.959 1.747 3.796 6.288 5.377 9.959 3.648 10.74-4.98 17.68-15.846 17.68-27.681 0-16.817-13.683-30.5-30.5-30.5s-30.5 13.683-30.5 30.5c0 2.719.359 5.416 1.067 8.018 1.088 3.997 5.212 6.354 9.206 5.267 3.997-1.087 6.354-5.209 5.267-9.206-.358-1.317-.54-2.689-.54-4.078 0-8.547 6.953-15.5 15.5-15.5s15.5 6.953 15.5 15.5c-.001 6.017-3.53 11.54-8.991 14.073z"/><path d="m316.25 395.25c14.888 0 27-12.112 27-27s-12.112-27-27-27-27 12.112-27 27 12.112 27 27 27zm0-39c6.617 0 12 5.383 12 12s-5.383 12-12 12-12-5.383-12-12 5.383-12 12-12z"/><path d="m205.25 208.25c0 15.991 13.01 29 29 29s29-13.009 29-29-13.01-29-29-29-29 13.009-29 29zm43 0c0 7.72-6.28 14-14 14s-14-6.28-14-14 6.28-14 14-14 14 6.28 14 14z"/><path d="m269.25 95.25c-13.785 0-25 11.215-25 25s11.215 25 25 25 25-11.215 25-25-11.215-25-25-25zm0 35c-5.514 0-10-4.486-10-10s4.486-10 10-10 10 4.486 10 10-4.486 10-10 10z"/><path d="m271.25 324.25c0-13.233-10.767-24-24-24s-24 10.767-24 24 10.767 24 24 24 24-10.767 24-24zm-33 0c0-4.963 4.037-9 9-9s9 4.037 9 9-4.037 9-9 9-9-4.037-9-9z"/></g></g></svg>