<?xml version="1.0" encoding="iso-8859-1"?>
<!-- Generator: Adobe Illustrator 19.0.0, SVG Export Plug-In . SVG Version: 6.00 Build 0)  -->
<svg version="1.1" id="Layer_1" xmlns="http://www.w3.org/2000/svg" xmlns:xlink="http://www.w3.org/1999/xlink" x="0px" y="0px"
	 viewBox="0 0 512 512" style="enable-background:new 0 0 512 512;" xml:space="preserve">
<rect x="256" y="8.17" style="fill:#82C8DB;" width="24" height="24"/>
<polygon style="fill:#A3DDE9;" points="99.028,32.352 33.61,59.449 114.371,254.424 168.232,199.424 "/>
<g>
	<polygon style="fill:#82C8DB;" points="412.972,32.352 343.809,199.46 397.63,254.419 478.39,59.449 	"/>
	<path style="fill:#82C8DB;" d="M256,155.234V503.83c96.261,0,174.298-78.035,174.298-174.298S352.263,155.234,256,155.234z"/>
</g>
<g>
	<path style="fill:#A3DDE9;" d="M256,155.234c-96.263,0-174.298,78.036-174.298,174.298S159.738,503.83,256,503.83
		c78.213,0,141.617-78.035,141.617-174.298S334.213,155.234,256,155.234z"/>
	<rect x="206.979" y="8.17" style="fill:#A3DDE9;" width="65.362" height="186.749"/>
</g>
<path style="fill:#146A8A;" d="M379.25,285.957h-30.813L256,460.255c72.081,0,130.723-58.641,130.723-130.723
	C386.723,314.259,384.087,299.593,379.25,285.957z"/>
<path style="fill:#2089B0;" d="M348.438,285.957H132.75c-4.837,13.636-7.473,28.302-7.473,43.574
	c0,72.082,58.643,130.723,130.723,130.723c54.061,0,98.043-58.641,98.043-130.723C354.043,314.259,352.065,299.593,348.438,285.957z
	"/>
<path d="M491.581,56.069l-85.548-35.435c-4.168-1.726-8.948,0.253-10.675,4.422c-1.727,4.169,0.253,8.948,4.422,10.675l2.519,1.044
	l-55.625,134.4c-10.647-6.111-21.86-11.118-33.482-14.953V16.34h2.723c4.512,0,8.17-3.658,8.17-8.17S320.428,0,315.916,0H196.085
	c-4.512,0-8.17,3.658-8.17,8.17s3.658,8.17,8.17,8.17h2.723v139.881c-11.623,3.832-22.823,8.829-33.448,14.921L109.704,36.774
	l2.516-1.043c4.169-1.727,6.148-6.507,4.422-10.675c-1.727-4.169-6.506-6.148-10.675-4.422L20.419,56.069
	c-4.169,1.727-6.148,6.507-4.422,10.675c1.303,3.146,4.345,5.046,7.551,5.046c1.043,0,2.101-0.2,3.123-0.624l2.515-1.043
	l69.291,167.28c-16.333,27.875-24.946,59.636-24.946,92.128C73.532,430.145,155.387,512,256,512s182.468-81.855,182.468-182.468
	c0-32.503-8.612-64.266-24.944-92.134l69.288-167.275l2.516,1.043c1.023,0.424,2.082,0.624,3.123,0.624
	c3.206,0,6.249-1.9,7.551-5.046C497.729,62.575,495.749,57.796,491.581,56.069z M467.715,63.87l-70.864,171.081
	c-1.004,2.426-0.782,5.186,0.597,7.42c16.145,26.139,24.679,56.279,24.679,87.16c0,91.603-74.524,166.128-166.128,166.128
	S89.872,421.135,89.872,329.532c0-30.87,8.535-61.009,24.683-87.155c1.379-2.233,1.601-4.994,0.597-7.42L44.285,63.87l50.322-20.844
	l59.308,143.182c0.928,2.241,2.803,3.952,5.119,4.673c0.795,0.247,1.614,0.369,2.429,0.369c1.558,0,3.101-0.446,4.438-1.311
	c13.443-8.695,28.035-15.38,43.372-19.867c3.483-1.019,5.876-4.213,5.876-7.841V16.34h81.702v145.894
	c0,3.629,2.393,6.823,5.877,7.841c15.322,4.482,29.925,11.178,43.406,19.902c2.036,1.318,4.551,1.663,6.87,0.941
	c2.316-0.721,4.192-2.435,5.119-4.677l59.274-143.216l13.167,5.454L467.715,63.87z"/>
<path d="M379.25,277.787H132.75c-3.459,0-6.544,2.179-7.7,5.439c-5.271,14.859-7.944,30.439-7.944,46.305
	c0,76.587,62.307,138.894,138.894,138.894c63.346,0,118.653-42.836,134.498-104.169c1.129-4.369-1.498-8.826-5.867-9.955
	s-8.826,1.497-9.955,5.867c-13.98,54.118-62.781,91.916-118.676,91.916c-67.576,0-122.553-54.977-122.553-122.553
	c0-12.076,1.753-23.959,5.217-35.404h234.674c3.463,11.445,5.217,23.329,5.217,35.404c0,4.512,3.658,8.17,8.17,8.17
	c4.512,0,8.17-3.658,8.17-8.17c0-15.867-2.672-31.447-7.944-46.305C385.793,279.966,382.709,277.787,379.25,277.787z"/>
<g>
</g>
<g>
</g>
<g>
</g>
<g>
</g>
<g>
</g>
<g>
</g>
<g>
</g>
<g>
</g>
<g>
</g>
<g>
</g>
<g>
</g>
<g>
</g>
<g>
</g>
<g>
</g>
<g>
</g>
</svg>
